<svg width="2160" height="2160" viewBox="0 0 2160 2160" fill="none" xmlns="http://www.w3.org/2000/svg">
<g clip-path="url(#clip0_2_93)">
<g filter="url(#filter0_d_2_93)">
<path d="M1107.42 1792.08C1047.52 1792.08 1002.8 1791.66 973.266 1790.81V947.906C1009.55 947.062 1063.13 946.641 1134 946.641C1205.72 946.641 1259.3 947.062 1294.73 947.906C1377.42 948.75 1449.14 965.625 1509.89 998.531C1571.48 1030.59 1618.73 1076.58 1651.64 1136.48C1685.39 1196.39 1702.27 1266.42 1702.27 1346.58C1702.27 1434.33 1682.86 1511.53 1644.05 1578.19C1606.08 1644.84 1552.08 1696.73 1482.05 1733.86C1412.86 1770.98 1332.28 1789.97 1240.31 1790.81C1210.78 1791.66 1166.48 1792.08 1107.42 1792.08ZM1239.05 1631.34C1324.27 1631.34 1391.34 1606.45 1440.28 1556.67C1489.22 1506.89 1513.69 1438.55 1513.69 1351.64C1513.69 1273.17 1492.59 1212.84 1450.41 1170.66C1409.06 1128.47 1349.16 1107.37 1270.69 1107.37H1156.78V1631.34H1239.05Z" fill="white"/>
</g>
<g filter="url(#filter1_d_2_93)">
<path d="M792.281 1309.45C743.344 1309.45 696.516 1303.97 651.797 1293C607.922 1282.03 569.953 1267.27 537.891 1248.7L553.078 1079.11C591.047 1102.73 630.703 1121.3 672.047 1134.8C714.234 1147.45 753.047 1153.78 788.484 1153.78C828.984 1153.78 861.891 1145.34 887.203 1128.47C912.516 1111.59 925.172 1089.23 925.172 1061.39C925.172 1038.61 916.734 1021.31 899.859 1009.5C882.984 996.844 856.406 983.344 820.125 969L789.75 956.344C785.531 954.656 780.891 952.969 775.828 951.281C770.766 948.75 764.859 946.219 758.109 943.687C710.859 924.281 672.891 906.141 644.203 889.266C615.516 871.547 590.625 847.078 569.531 815.859C549.281 784.641 539.156 744.141 539.156 694.359C539.156 613.359 566.578 549.656 621.422 503.25C676.266 456.844 752.625 433.641 850.5 433.641C924.75 433.641 1000.69 448.828 1078.31 479.203L1050.47 646.266C1019.25 628.547 985.5 614.625 949.219 604.5C913.781 594.375 880.031 589.312 847.969 589.312C808.313 589.312 777.516 597.328 755.578 613.359C733.641 628.547 722.672 649.219 722.672 675.375C722.672 698.156 730.266 715.875 745.453 728.531C760.641 741.187 785.109 754.687 818.859 769.031L870.75 789.281C919.688 807.844 960.188 825.984 992.25 843.703C1024.31 861.422 1051.73 887.156 1074.52 920.906C1097.3 953.812 1108.69 996.844 1108.69 1050C1108.69 1131.84 1080.84 1195.55 1025.16 1241.11C969.469 1286.67 891.844 1309.45 792.281 1309.45Z" fill="white"/>
</g>
<circle cx="1080" cy="1080" r="999.844" stroke="white" stroke-width="75.9375"/>
</g>
<defs>
<filter id="filter0_d_2_93" x="939.516" y="946.641" width="796.5" height="912.938" filterUnits="userSpaceOnUse" color-interpolation-filters="sRGB">
<feFlood flood-opacity="0" result="BackgroundImageFix"/>
<feColorMatrix in="SourceAlpha" type="matrix" values="0 0 0 0 0 0 0 0 0 0 0 0 0 0 0 0 0 0 127 0" result="hardAlpha"/>
<feOffset dy="33.75"/>
<feGaussianBlur stdDeviation="16.875"/>
<feComposite in2="hardAlpha" operator="out"/>
<feColorMatrix type="matrix" values="0 0 0 0 0 0 0 0 0 0 0 0 0 0 0 0 0 0 0.25 0"/>
<feBlend mode="normal" in2="BackgroundImageFix" result="effect1_dropShadow_2_93"/>
<feBlend mode="normal" in="SourceGraphic" in2="effect1_dropShadow_2_93" result="shape"/>
</filter>
<filter id="filter1_d_2_93" x="504.141" y="433.641" width="638.297" height="943.312" filterUnits="userSpaceOnUse" color-interpolation-filters="sRGB">
<feFlood flood-opacity="0" result="BackgroundImageFix"/>
<feColorMatrix in="SourceAlpha" type="matrix" values="0 0 0 0 0 0 0 0 0 0 0 0 0 0 0 0 0 0 127 0" result="hardAlpha"/>
<feOffset dy="33.75"/>
<feGaussianBlur stdDeviation="16.875"/>
<feComposite in2="hardAlpha" operator="out"/>
<feColorMatrix type="matrix" values="0 0 0 0 0 0 0 0 0 0 0 0 0 0 0 0 0 0 0.25 0"/>
<feBlend mode="normal" in2="BackgroundImageFix" result="effect1_dropShadow_2_93"/>
<feBlend mode="normal" in="SourceGraphic" in2="effect1_dropShadow_2_93" result="shape"/>
</filter>
<clipPath id="clip0_2_93">
<rect width="2160" height="2160" fill="white"/>
</clipPath>
</defs>
</svg>
